<svg xmlns="http://www.w3.org/2000/svg" viewBox="0 0 128 128" width="128" height="128">
  <rect width="128" height="128" rx="16" fill="#1a1a2e"/>
  <!-- Pixel grid background -->
  <rect x="20" y="20" width="88" height="88" rx="4" fill="#16213e"/>
  <!-- Pixel art - simple heart shape -->
  <rect x="32" y="36" width="12" height="12" fill="#e74c3c"/>
  <rect x="44" y="36" width="12" height="12" fill="#e74c3c"/>
  <rect x="60" y="36" width="12" height="12" fill="#e74c3c"/>
  <rect x="72" y="36" width="12" height="12" fill="#e74c3c"/>
  <rect x="24" y="48" width="12" height="12" fill="#e74c3c"/>
  <rect x="36" y="48" width="12" height="12" fill="#ff6b6b"/>
  <rect x="48" y="48" width="12" height="12" fill="#e74c3c"/>
  <rect x="60" y="48" width="12" height="12" fill="#e74c3c"/>
  <rect x="72" y="48" width="12" height="12" fill="#ff6b6b"/>
  <rect x="84" y="48" width="12" height="12" fill="#e74c3c"/>
  <rect x="24" y="60" width="12" height="12" fill="#e74c3c"/>
  <rect x="36" y="60" width="12" height="12" fill="#e74c3c"/>
  <rect x="48" y="60" width="12" height="12" fill="#ff6b6b"/>
  <rect x="60" y="60" width="12" height="12" fill="#e74c3c"/>
  <rect x="72" y="60" width="12" height="12" fill="#e74c3c"/>
  <rect x="84" y="60" width="12" height="12" fill="#e74c3c"/>
  <rect x="32" y="72" width="12" height="12" fill="#e74c3c"/>
  <rect x="44" y="72" width="12" height="12" fill="#e74c3c"/>
  <rect x="56" y="72" width="12" height="12" fill="#e74c3c"/>
  <rect x="68" y="72" width="12" height="12" fill="#e74c3c"/>
  <rect x="80" y="72" width="12" height="12" fill="#e74c3c"/>
  <rect x="44" y="84" width="12" height="12" fill="#e74c3c"/>
  <rect x="56" y="84" width="12" height="12" fill="#e74c3c"/>
  <rect x="68" y="84" width="12" height="12" fill="#e74c3c"/>
  <rect x="56" y="96" width="12" height="12" fill="#e74c3c"/>
  <!-- Grid lines for pixel effect -->
  <line x1="36" y1="32" x2="36" y2="108" stroke="#1a1a2e" stroke-width="0.5" opacity="0.3"/>
  <line x1="48" y1="32" x2="48" y2="108" stroke="#1a1a2e" stroke-width="0.5" opacity="0.3"/>
  <line x1="60" y1="32" x2="60" y2="108" stroke="#1a1a2e" stroke-width="0.5" opacity="0.3"/>
  <line x1="72" y1="32" x2="72" y2="108" stroke="#1a1a2e" stroke-width="0.5" opacity="0.3"/>
  <line x1="84" y1="32" x2="84" y2="108" stroke="#1a1a2e" stroke-width="0.5" opacity="0.3"/>
  <line x1="20" y1="48" x2="108" y2="48" stroke="#1a1a2e" stroke-width="0.5" opacity="0.3"/>
  <line x1="20" y1="60" x2="108" y2="60" stroke="#1a1a2e" stroke-width="0.5" opacity="0.3"/>
  <line x1="20" y1="72" x2="108" y2="72" stroke="#1a1a2e" stroke-width="0.5" opacity="0.3"/>
  <line x1="20" y1="84" x2="108" y2="84" stroke="#1a1a2e" stroke-width="0.5" opacity="0.3"/>
  <line x1="20" y1="96" x2="108" y2="96" stroke="#1a1a2e" stroke-width="0.5" opacity="0.3"/>
</svg>
